<mxfile host="Electron" agent="Mozilla/5.0 (Macintosh; Intel Mac OS X 10_15_7) AppleWebKit/537.36 (KHTML, like Gecko) draw.io/24.7.17 Chrome/128.0.6613.36 Electron/32.0.1 Safari/537.36" version="24.7.17" pages="2">
  <diagram id="x42qIi5AAi1l1lhc7DHS" name="Pagina-3">
    <mxGraphModel dx="737" dy="969" grid="1" gridSize="10" guides="1" tooltips="1" connect="1" arrows="1" fold="1" page="1" pageScale="1" pageWidth="827" pageHeight="1169" math="0" shadow="0">
      <root>
        <mxCell id="0" />
        <mxCell id="1" parent="0" />
        <mxCell id="CjHo6Ju2qZuh-pr2p7nx-90" value="masterizzazione CD" style="ellipse;html=1;whiteSpace=wrap;" vertex="1" parent="1">
          <mxGeometry x="300" y="300" width="100" height="40" as="geometry" />
        </mxCell>
        <mxCell id="CjHo6Ju2qZuh-pr2p7nx-91" value="masterizza 1 volta&amp;nbsp;" style="ellipse;html=1;whiteSpace=wrap;" vertex="1" parent="1">
          <mxGeometry x="160" y="180" width="100" height="40" as="geometry" />
        </mxCell>
        <mxCell id="CjHo6Ju2qZuh-pr2p7nx-92" value="masterizza + volte" style="ellipse;html=1;whiteSpace=wrap;" vertex="1" parent="1">
          <mxGeometry x="300" y="180" width="100" height="40" as="geometry" />
        </mxCell>
        <mxCell id="CjHo6Ju2qZuh-pr2p7nx-93" value="leggi CD" style="ellipse;html=1;whiteSpace=wrap;" vertex="1" parent="1">
          <mxGeometry x="300" y="380" width="100" height="40" as="geometry" />
        </mxCell>
        <mxCell id="CjHo6Ju2qZuh-pr2p7nx-94" value="brano successivo" style="ellipse;html=1;whiteSpace=wrap;" vertex="1" parent="1">
          <mxGeometry x="300" y="440" width="100" height="40" as="geometry" />
        </mxCell>
        <mxCell id="CjHo6Ju2qZuh-pr2p7nx-95" value="primo brano" style="ellipse;html=1;whiteSpace=wrap;" vertex="1" parent="1">
          <mxGeometry x="300" y="500" width="100" height="40" as="geometry" />
        </mxCell>
        <mxCell id="CjHo6Ju2qZuh-pr2p7nx-96" value="ultimo brano" style="ellipse;html=1;whiteSpace=wrap;" vertex="1" parent="1">
          <mxGeometry x="300" y="550" width="100" height="40" as="geometry" />
        </mxCell>
        <mxCell id="CjHo6Ju2qZuh-pr2p7nx-97" value="aggiungi canzone" style="ellipse;html=1;whiteSpace=wrap;" vertex="1" parent="1">
          <mxGeometry x="300" y="610" width="100" height="40" as="geometry" />
        </mxCell>
        <mxCell id="CjHo6Ju2qZuh-pr2p7nx-99" value="elimina canzone" style="ellipse;html=1;whiteSpace=wrap;" vertex="1" parent="1">
          <mxGeometry x="300" y="670" width="100" height="40" as="geometry" />
        </mxCell>
        <mxCell id="CjHo6Ju2qZuh-pr2p7nx-100" value="crea canzone&amp;nbsp;" style="ellipse;html=1;whiteSpace=wrap;" vertex="1" parent="1">
          <mxGeometry x="300" y="720" width="100" height="40" as="geometry" />
        </mxCell>
        <mxCell id="CjHo6Ju2qZuh-pr2p7nx-101" value="cerca canzone" style="ellipse;html=1;whiteSpace=wrap;" vertex="1" parent="1">
          <mxGeometry x="300" y="770" width="100" height="40" as="geometry" />
        </mxCell>
        <mxCell id="CjHo6Ju2qZuh-pr2p7nx-102" value="completa cd" style="ellipse;html=1;whiteSpace=wrap;" vertex="1" parent="1">
          <mxGeometry x="300" y="820" width="100" height="40" as="geometry" />
        </mxCell>
        <mxCell id="CjHo6Ju2qZuh-pr2p7nx-103" value="memorizza info" style="ellipse;html=1;whiteSpace=wrap;" vertex="1" parent="1">
          <mxGeometry x="300" y="870" width="100" height="40" as="geometry" />
        </mxCell>
        <mxCell id="CjHo6Ju2qZuh-pr2p7nx-104" value="leggi" style="ellipse;html=1;whiteSpace=wrap;" vertex="1" parent="1">
          <mxGeometry x="300" y="920" width="100" height="40" as="geometry" />
        </mxCell>
        <mxCell id="CjHo6Ju2qZuh-pr2p7nx-105" value="riscivi" style="ellipse;html=1;whiteSpace=wrap;" vertex="1" parent="1">
          <mxGeometry x="450" y="180" width="100" height="40" as="geometry" />
        </mxCell>
        <mxCell id="CjHo6Ju2qZuh-pr2p7nx-107" value="" style="endArrow=block;html=1;rounded=0;align=center;verticalAlign=bottom;endFill=0;labelBackgroundColor=none;endSize=8;exitX=0.5;exitY=1;exitDx=0;exitDy=0;entryX=0.5;entryY=0;entryDx=0;entryDy=0;" edge="1" parent="1" source="CjHo6Ju2qZuh-pr2p7nx-91" target="CjHo6Ju2qZuh-pr2p7nx-90">
          <mxGeometry x="-0.0036" relative="1" as="geometry">
            <mxPoint x="150" y="360" as="sourcePoint" />
            <mxPoint x="310" y="360" as="targetPoint" />
            <mxPoint as="offset" />
          </mxGeometry>
        </mxCell>
        <mxCell id="CjHo6Ju2qZuh-pr2p7nx-108" value="" style="resizable=0;html=1;align=center;verticalAlign=top;labelBackgroundColor=none;" connectable="0" vertex="1" parent="CjHo6Ju2qZuh-pr2p7nx-107">
          <mxGeometry relative="1" as="geometry" />
        </mxCell>
        <mxCell id="CjHo6Ju2qZuh-pr2p7nx-109" value="" style="endArrow=block;html=1;rounded=0;align=center;verticalAlign=bottom;endFill=0;labelBackgroundColor=none;endSize=8;exitX=0.5;exitY=1;exitDx=0;exitDy=0;entryX=0.5;entryY=0;entryDx=0;entryDy=0;" edge="1" parent="1" source="CjHo6Ju2qZuh-pr2p7nx-92" target="CjHo6Ju2qZuh-pr2p7nx-90">
          <mxGeometry x="-0.0036" relative="1" as="geometry">
            <mxPoint x="220" y="230" as="sourcePoint" />
            <mxPoint x="360" y="330" as="targetPoint" />
            <mxPoint as="offset" />
          </mxGeometry>
        </mxCell>
        <mxCell id="CjHo6Ju2qZuh-pr2p7nx-110" value="" style="resizable=0;html=1;align=center;verticalAlign=top;labelBackgroundColor=none;" connectable="0" vertex="1" parent="CjHo6Ju2qZuh-pr2p7nx-109">
          <mxGeometry relative="1" as="geometry" />
        </mxCell>
        <mxCell id="CjHo6Ju2qZuh-pr2p7nx-111" value="" style="endArrow=block;html=1;rounded=0;align=center;verticalAlign=bottom;endFill=0;labelBackgroundColor=none;endSize=8;exitX=0.5;exitY=1;exitDx=0;exitDy=0;entryX=0.5;entryY=0;entryDx=0;entryDy=0;" edge="1" parent="1" source="CjHo6Ju2qZuh-pr2p7nx-105" target="CjHo6Ju2qZuh-pr2p7nx-90">
          <mxGeometry x="-0.0036" relative="1" as="geometry">
            <mxPoint x="230" y="240" as="sourcePoint" />
            <mxPoint x="350" y="320" as="targetPoint" />
            <mxPoint as="offset" />
          </mxGeometry>
        </mxCell>
        <mxCell id="CjHo6Ju2qZuh-pr2p7nx-112" value="" style="resizable=0;html=1;align=center;verticalAlign=top;labelBackgroundColor=none;" connectable="0" vertex="1" parent="CjHo6Ju2qZuh-pr2p7nx-111">
          <mxGeometry relative="1" as="geometry" />
        </mxCell>
        <mxCell id="CjHo6Ju2qZuh-pr2p7nx-113" value="utente" style="shape=umlActor;verticalLabelPosition=bottom;verticalAlign=top;html=1;" vertex="1" parent="1">
          <mxGeometry x="680" y="480" width="30" height="60" as="geometry" />
        </mxCell>
        <mxCell id="CjHo6Ju2qZuh-pr2p7nx-114" value="" style="endArrow=none;html=1;rounded=0;align=center;verticalAlign=top;endFill=0;labelBackgroundColor=none;entryX=0.5;entryY=0;entryDx=0;entryDy=0;entryPerimeter=0;exitX=1;exitY=0.5;exitDx=0;exitDy=0;" edge="1" parent="1" source="CjHo6Ju2qZuh-pr2p7nx-90" target="CjHo6Ju2qZuh-pr2p7nx-113">
          <mxGeometry relative="1" as="geometry">
            <mxPoint x="400" y="340" as="sourcePoint" />
            <mxPoint x="600" y="340" as="targetPoint" />
          </mxGeometry>
        </mxCell>
        <mxCell id="CjHo6Ju2qZuh-pr2p7nx-115" value="" style="resizable=0;html=1;align=left;verticalAlign=bottom;labelBackgroundColor=none;" connectable="0" vertex="1" parent="CjHo6Ju2qZuh-pr2p7nx-114">
          <mxGeometry x="-1" relative="1" as="geometry" />
        </mxCell>
        <mxCell id="CjHo6Ju2qZuh-pr2p7nx-116" value="" style="resizable=0;html=1;align=left;verticalAlign=top;labelBackgroundColor=none;" connectable="0" vertex="1" parent="CjHo6Ju2qZuh-pr2p7nx-114">
          <mxGeometry x="-1" relative="1" as="geometry" />
        </mxCell>
        <mxCell id="CjHo6Ju2qZuh-pr2p7nx-117" value="" style="resizable=0;html=1;align=right;verticalAlign=bottom;labelBackgroundColor=none;" connectable="0" vertex="1" parent="CjHo6Ju2qZuh-pr2p7nx-114">
          <mxGeometry x="1" relative="1" as="geometry" />
        </mxCell>
        <mxCell id="CjHo6Ju2qZuh-pr2p7nx-118" value="" style="resizable=0;html=1;align=right;verticalAlign=top;labelBackgroundColor=none;" connectable="0" vertex="1" parent="CjHo6Ju2qZuh-pr2p7nx-114">
          <mxGeometry x="1" relative="1" as="geometry" />
        </mxCell>
        <mxCell id="CjHo6Ju2qZuh-pr2p7nx-120" value="" style="endArrow=none;html=1;rounded=0;align=center;verticalAlign=top;endFill=0;labelBackgroundColor=none;exitX=1;exitY=0.5;exitDx=0;exitDy=0;" edge="1" parent="1" source="CjHo6Ju2qZuh-pr2p7nx-93">
          <mxGeometry relative="1" as="geometry">
            <mxPoint x="410" y="330" as="sourcePoint" />
            <mxPoint x="690" y="480" as="targetPoint" />
          </mxGeometry>
        </mxCell>
        <mxCell id="CjHo6Ju2qZuh-pr2p7nx-121" value="" style="resizable=0;html=1;align=left;verticalAlign=bottom;labelBackgroundColor=none;" connectable="0" vertex="1" parent="CjHo6Ju2qZuh-pr2p7nx-120">
          <mxGeometry x="-1" relative="1" as="geometry" />
        </mxCell>
        <mxCell id="CjHo6Ju2qZuh-pr2p7nx-122" value="" style="resizable=0;html=1;align=left;verticalAlign=top;labelBackgroundColor=none;" connectable="0" vertex="1" parent="CjHo6Ju2qZuh-pr2p7nx-120">
          <mxGeometry x="-1" relative="1" as="geometry" />
        </mxCell>
        <mxCell id="CjHo6Ju2qZuh-pr2p7nx-123" value="" style="resizable=0;html=1;align=right;verticalAlign=bottom;labelBackgroundColor=none;" connectable="0" vertex="1" parent="CjHo6Ju2qZuh-pr2p7nx-120">
          <mxGeometry x="1" relative="1" as="geometry" />
        </mxCell>
        <mxCell id="CjHo6Ju2qZuh-pr2p7nx-124" value="" style="resizable=0;html=1;align=right;verticalAlign=top;labelBackgroundColor=none;" connectable="0" vertex="1" parent="CjHo6Ju2qZuh-pr2p7nx-120">
          <mxGeometry x="1" relative="1" as="geometry" />
        </mxCell>
        <mxCell id="CjHo6Ju2qZuh-pr2p7nx-125" value="" style="endArrow=none;html=1;rounded=0;align=center;verticalAlign=top;endFill=0;labelBackgroundColor=none;exitX=1;exitY=0.5;exitDx=0;exitDy=0;entryX=0.5;entryY=0;entryDx=0;entryDy=0;entryPerimeter=0;" edge="1" parent="1" source="CjHo6Ju2qZuh-pr2p7nx-94" target="CjHo6Ju2qZuh-pr2p7nx-113">
          <mxGeometry relative="1" as="geometry">
            <mxPoint x="410" y="410" as="sourcePoint" />
            <mxPoint x="685" y="330" as="targetPoint" />
          </mxGeometry>
        </mxCell>
        <mxCell id="CjHo6Ju2qZuh-pr2p7nx-126" value="" style="resizable=0;html=1;align=left;verticalAlign=bottom;labelBackgroundColor=none;" connectable="0" vertex="1" parent="CjHo6Ju2qZuh-pr2p7nx-125">
          <mxGeometry x="-1" relative="1" as="geometry" />
        </mxCell>
        <mxCell id="CjHo6Ju2qZuh-pr2p7nx-127" value="" style="resizable=0;html=1;align=left;verticalAlign=top;labelBackgroundColor=none;" connectable="0" vertex="1" parent="CjHo6Ju2qZuh-pr2p7nx-125">
          <mxGeometry x="-1" relative="1" as="geometry" />
        </mxCell>
        <mxCell id="CjHo6Ju2qZuh-pr2p7nx-128" value="" style="resizable=0;html=1;align=right;verticalAlign=bottom;labelBackgroundColor=none;" connectable="0" vertex="1" parent="CjHo6Ju2qZuh-pr2p7nx-125">
          <mxGeometry x="1" relative="1" as="geometry" />
        </mxCell>
        <mxCell id="CjHo6Ju2qZuh-pr2p7nx-129" value="" style="resizable=0;html=1;align=right;verticalAlign=top;labelBackgroundColor=none;" connectable="0" vertex="1" parent="CjHo6Ju2qZuh-pr2p7nx-125">
          <mxGeometry x="1" relative="1" as="geometry" />
        </mxCell>
        <mxCell id="CjHo6Ju2qZuh-pr2p7nx-130" value="" style="endArrow=none;html=1;rounded=0;align=center;verticalAlign=top;endFill=0;labelBackgroundColor=none;exitX=1;exitY=0.5;exitDx=0;exitDy=0;entryX=0.5;entryY=0;entryDx=0;entryDy=0;entryPerimeter=0;" edge="1" parent="1" source="CjHo6Ju2qZuh-pr2p7nx-95" target="CjHo6Ju2qZuh-pr2p7nx-113">
          <mxGeometry relative="1" as="geometry">
            <mxPoint x="420" y="420" as="sourcePoint" />
            <mxPoint x="695" y="340" as="targetPoint" />
          </mxGeometry>
        </mxCell>
        <mxCell id="CjHo6Ju2qZuh-pr2p7nx-131" value="" style="resizable=0;html=1;align=left;verticalAlign=bottom;labelBackgroundColor=none;" connectable="0" vertex="1" parent="CjHo6Ju2qZuh-pr2p7nx-130">
          <mxGeometry x="-1" relative="1" as="geometry" />
        </mxCell>
        <mxCell id="CjHo6Ju2qZuh-pr2p7nx-132" value="" style="resizable=0;html=1;align=left;verticalAlign=top;labelBackgroundColor=none;" connectable="0" vertex="1" parent="CjHo6Ju2qZuh-pr2p7nx-130">
          <mxGeometry x="-1" relative="1" as="geometry" />
        </mxCell>
        <mxCell id="CjHo6Ju2qZuh-pr2p7nx-133" value="" style="resizable=0;html=1;align=right;verticalAlign=bottom;labelBackgroundColor=none;" connectable="0" vertex="1" parent="CjHo6Ju2qZuh-pr2p7nx-130">
          <mxGeometry x="1" relative="1" as="geometry" />
        </mxCell>
        <mxCell id="CjHo6Ju2qZuh-pr2p7nx-134" value="" style="resizable=0;html=1;align=right;verticalAlign=top;labelBackgroundColor=none;" connectable="0" vertex="1" parent="CjHo6Ju2qZuh-pr2p7nx-130">
          <mxGeometry x="1" relative="1" as="geometry" />
        </mxCell>
        <mxCell id="CjHo6Ju2qZuh-pr2p7nx-135" value="" style="endArrow=none;html=1;rounded=0;align=center;verticalAlign=top;endFill=0;labelBackgroundColor=none;exitX=1;exitY=0.389;exitDx=0;exitDy=0;entryX=0.5;entryY=0;entryDx=0;entryDy=0;entryPerimeter=0;exitPerimeter=0;" edge="1" parent="1" source="CjHo6Ju2qZuh-pr2p7nx-96" target="CjHo6Ju2qZuh-pr2p7nx-113">
          <mxGeometry relative="1" as="geometry">
            <mxPoint x="430" y="430" as="sourcePoint" />
            <mxPoint x="705" y="350" as="targetPoint" />
          </mxGeometry>
        </mxCell>
        <mxCell id="CjHo6Ju2qZuh-pr2p7nx-136" value="" style="resizable=0;html=1;align=left;verticalAlign=bottom;labelBackgroundColor=none;" connectable="0" vertex="1" parent="CjHo6Ju2qZuh-pr2p7nx-135">
          <mxGeometry x="-1" relative="1" as="geometry" />
        </mxCell>
        <mxCell id="CjHo6Ju2qZuh-pr2p7nx-137" value="" style="resizable=0;html=1;align=left;verticalAlign=top;labelBackgroundColor=none;" connectable="0" vertex="1" parent="CjHo6Ju2qZuh-pr2p7nx-135">
          <mxGeometry x="-1" relative="1" as="geometry" />
        </mxCell>
        <mxCell id="CjHo6Ju2qZuh-pr2p7nx-138" value="" style="resizable=0;html=1;align=right;verticalAlign=bottom;labelBackgroundColor=none;" connectable="0" vertex="1" parent="CjHo6Ju2qZuh-pr2p7nx-135">
          <mxGeometry x="1" relative="1" as="geometry" />
        </mxCell>
        <mxCell id="CjHo6Ju2qZuh-pr2p7nx-139" value="" style="resizable=0;html=1;align=right;verticalAlign=top;labelBackgroundColor=none;" connectable="0" vertex="1" parent="CjHo6Ju2qZuh-pr2p7nx-135">
          <mxGeometry x="1" relative="1" as="geometry" />
        </mxCell>
        <mxCell id="CjHo6Ju2qZuh-pr2p7nx-140" value="" style="endArrow=none;html=1;rounded=0;align=center;verticalAlign=top;endFill=0;labelBackgroundColor=none;exitX=1;exitY=0.5;exitDx=0;exitDy=0;entryX=0.5;entryY=0;entryDx=0;entryDy=0;entryPerimeter=0;" edge="1" parent="1" source="CjHo6Ju2qZuh-pr2p7nx-97" target="CjHo6Ju2qZuh-pr2p7nx-113">
          <mxGeometry relative="1" as="geometry">
            <mxPoint x="440" y="440" as="sourcePoint" />
            <mxPoint x="715" y="360" as="targetPoint" />
          </mxGeometry>
        </mxCell>
        <mxCell id="CjHo6Ju2qZuh-pr2p7nx-141" value="" style="resizable=0;html=1;align=left;verticalAlign=bottom;labelBackgroundColor=none;" connectable="0" vertex="1" parent="CjHo6Ju2qZuh-pr2p7nx-140">
          <mxGeometry x="-1" relative="1" as="geometry" />
        </mxCell>
        <mxCell id="CjHo6Ju2qZuh-pr2p7nx-142" value="" style="resizable=0;html=1;align=left;verticalAlign=top;labelBackgroundColor=none;" connectable="0" vertex="1" parent="CjHo6Ju2qZuh-pr2p7nx-140">
          <mxGeometry x="-1" relative="1" as="geometry" />
        </mxCell>
        <mxCell id="CjHo6Ju2qZuh-pr2p7nx-143" value="" style="resizable=0;html=1;align=right;verticalAlign=bottom;labelBackgroundColor=none;" connectable="0" vertex="1" parent="CjHo6Ju2qZuh-pr2p7nx-140">
          <mxGeometry x="1" relative="1" as="geometry" />
        </mxCell>
        <mxCell id="CjHo6Ju2qZuh-pr2p7nx-144" value="" style="resizable=0;html=1;align=right;verticalAlign=top;labelBackgroundColor=none;" connectable="0" vertex="1" parent="CjHo6Ju2qZuh-pr2p7nx-140">
          <mxGeometry x="1" relative="1" as="geometry" />
        </mxCell>
        <mxCell id="CjHo6Ju2qZuh-pr2p7nx-145" value="" style="endArrow=none;html=1;rounded=0;align=center;verticalAlign=top;endFill=0;labelBackgroundColor=none;exitX=1;exitY=0.5;exitDx=0;exitDy=0;" edge="1" parent="1" source="CjHo6Ju2qZuh-pr2p7nx-99">
          <mxGeometry relative="1" as="geometry">
            <mxPoint x="450" y="450" as="sourcePoint" />
            <mxPoint x="690" y="480" as="targetPoint" />
          </mxGeometry>
        </mxCell>
        <mxCell id="CjHo6Ju2qZuh-pr2p7nx-146" value="" style="resizable=0;html=1;align=left;verticalAlign=bottom;labelBackgroundColor=none;" connectable="0" vertex="1" parent="CjHo6Ju2qZuh-pr2p7nx-145">
          <mxGeometry x="-1" relative="1" as="geometry" />
        </mxCell>
        <mxCell id="CjHo6Ju2qZuh-pr2p7nx-147" value="" style="resizable=0;html=1;align=left;verticalAlign=top;labelBackgroundColor=none;" connectable="0" vertex="1" parent="CjHo6Ju2qZuh-pr2p7nx-145">
          <mxGeometry x="-1" relative="1" as="geometry" />
        </mxCell>
        <mxCell id="CjHo6Ju2qZuh-pr2p7nx-148" value="" style="resizable=0;html=1;align=right;verticalAlign=bottom;labelBackgroundColor=none;" connectable="0" vertex="1" parent="CjHo6Ju2qZuh-pr2p7nx-145">
          <mxGeometry x="1" relative="1" as="geometry" />
        </mxCell>
        <mxCell id="CjHo6Ju2qZuh-pr2p7nx-149" value="" style="resizable=0;html=1;align=right;verticalAlign=top;labelBackgroundColor=none;" connectable="0" vertex="1" parent="CjHo6Ju2qZuh-pr2p7nx-145">
          <mxGeometry x="1" relative="1" as="geometry" />
        </mxCell>
        <mxCell id="CjHo6Ju2qZuh-pr2p7nx-150" value="" style="endArrow=none;html=1;rounded=0;align=center;verticalAlign=top;endFill=0;labelBackgroundColor=none;exitX=1;exitY=0.5;exitDx=0;exitDy=0;" edge="1" parent="1" source="CjHo6Ju2qZuh-pr2p7nx-100">
          <mxGeometry relative="1" as="geometry">
            <mxPoint x="460" y="460" as="sourcePoint" />
            <mxPoint x="690" y="480" as="targetPoint" />
          </mxGeometry>
        </mxCell>
        <mxCell id="CjHo6Ju2qZuh-pr2p7nx-151" value="" style="resizable=0;html=1;align=left;verticalAlign=bottom;labelBackgroundColor=none;" connectable="0" vertex="1" parent="CjHo6Ju2qZuh-pr2p7nx-150">
          <mxGeometry x="-1" relative="1" as="geometry" />
        </mxCell>
        <mxCell id="CjHo6Ju2qZuh-pr2p7nx-152" value="" style="resizable=0;html=1;align=left;verticalAlign=top;labelBackgroundColor=none;" connectable="0" vertex="1" parent="CjHo6Ju2qZuh-pr2p7nx-150">
          <mxGeometry x="-1" relative="1" as="geometry" />
        </mxCell>
        <mxCell id="CjHo6Ju2qZuh-pr2p7nx-153" value="" style="resizable=0;html=1;align=right;verticalAlign=bottom;labelBackgroundColor=none;" connectable="0" vertex="1" parent="CjHo6Ju2qZuh-pr2p7nx-150">
          <mxGeometry x="1" relative="1" as="geometry" />
        </mxCell>
        <mxCell id="CjHo6Ju2qZuh-pr2p7nx-154" value="" style="resizable=0;html=1;align=right;verticalAlign=top;labelBackgroundColor=none;" connectable="0" vertex="1" parent="CjHo6Ju2qZuh-pr2p7nx-150">
          <mxGeometry x="1" relative="1" as="geometry" />
        </mxCell>
        <mxCell id="CjHo6Ju2qZuh-pr2p7nx-156" value="" style="endArrow=none;html=1;rounded=0;align=center;verticalAlign=top;endFill=0;labelBackgroundColor=none;exitX=1;exitY=0.5;exitDx=0;exitDy=0;" edge="1" parent="1" source="CjHo6Ju2qZuh-pr2p7nx-104">
          <mxGeometry relative="1" as="geometry">
            <mxPoint x="290" y="940" as="sourcePoint" />
            <mxPoint x="690" y="480" as="targetPoint" />
          </mxGeometry>
        </mxCell>
        <mxCell id="CjHo6Ju2qZuh-pr2p7nx-157" value="" style="resizable=0;html=1;align=left;verticalAlign=bottom;labelBackgroundColor=none;" connectable="0" vertex="1" parent="CjHo6Ju2qZuh-pr2p7nx-156">
          <mxGeometry x="-1" relative="1" as="geometry" />
        </mxCell>
        <mxCell id="CjHo6Ju2qZuh-pr2p7nx-158" value="" style="resizable=0;html=1;align=left;verticalAlign=top;labelBackgroundColor=none;" connectable="0" vertex="1" parent="CjHo6Ju2qZuh-pr2p7nx-156">
          <mxGeometry x="-1" relative="1" as="geometry" />
        </mxCell>
        <mxCell id="CjHo6Ju2qZuh-pr2p7nx-159" value="" style="resizable=0;html=1;align=right;verticalAlign=bottom;labelBackgroundColor=none;" connectable="0" vertex="1" parent="CjHo6Ju2qZuh-pr2p7nx-156">
          <mxGeometry x="1" relative="1" as="geometry" />
        </mxCell>
        <mxCell id="CjHo6Ju2qZuh-pr2p7nx-160" value="" style="resizable=0;html=1;align=right;verticalAlign=top;labelBackgroundColor=none;" connectable="0" vertex="1" parent="CjHo6Ju2qZuh-pr2p7nx-156">
          <mxGeometry x="1" relative="1" as="geometry" />
        </mxCell>
        <mxCell id="CjHo6Ju2qZuh-pr2p7nx-161" value="" style="endArrow=none;html=1;rounded=0;align=center;verticalAlign=top;endFill=0;labelBackgroundColor=none;exitX=1;exitY=0.5;exitDx=0;exitDy=0;entryX=0.25;entryY=0.1;entryDx=0;entryDy=0;entryPerimeter=0;" edge="1" parent="1" source="CjHo6Ju2qZuh-pr2p7nx-103" target="CjHo6Ju2qZuh-pr2p7nx-113">
          <mxGeometry relative="1" as="geometry">
            <mxPoint x="410" y="950" as="sourcePoint" />
            <mxPoint x="635" y="830" as="targetPoint" />
          </mxGeometry>
        </mxCell>
        <mxCell id="CjHo6Ju2qZuh-pr2p7nx-162" value="" style="resizable=0;html=1;align=left;verticalAlign=bottom;labelBackgroundColor=none;" connectable="0" vertex="1" parent="CjHo6Ju2qZuh-pr2p7nx-161">
          <mxGeometry x="-1" relative="1" as="geometry" />
        </mxCell>
        <mxCell id="CjHo6Ju2qZuh-pr2p7nx-163" value="" style="resizable=0;html=1;align=left;verticalAlign=top;labelBackgroundColor=none;" connectable="0" vertex="1" parent="CjHo6Ju2qZuh-pr2p7nx-161">
          <mxGeometry x="-1" relative="1" as="geometry" />
        </mxCell>
        <mxCell id="CjHo6Ju2qZuh-pr2p7nx-164" value="" style="resizable=0;html=1;align=right;verticalAlign=bottom;labelBackgroundColor=none;" connectable="0" vertex="1" parent="CjHo6Ju2qZuh-pr2p7nx-161">
          <mxGeometry x="1" relative="1" as="geometry" />
        </mxCell>
        <mxCell id="CjHo6Ju2qZuh-pr2p7nx-165" value="" style="resizable=0;html=1;align=right;verticalAlign=top;labelBackgroundColor=none;" connectable="0" vertex="1" parent="CjHo6Ju2qZuh-pr2p7nx-161">
          <mxGeometry x="1" relative="1" as="geometry" />
        </mxCell>
        <mxCell id="CjHo6Ju2qZuh-pr2p7nx-166" value="" style="endArrow=none;html=1;rounded=0;align=center;verticalAlign=top;endFill=0;labelBackgroundColor=none;exitX=1;exitY=0.5;exitDx=0;exitDy=0;" edge="1" parent="1" source="CjHo6Ju2qZuh-pr2p7nx-101">
          <mxGeometry relative="1" as="geometry">
            <mxPoint x="420" y="960" as="sourcePoint" />
            <mxPoint x="690" y="480" as="targetPoint" />
          </mxGeometry>
        </mxCell>
        <mxCell id="CjHo6Ju2qZuh-pr2p7nx-167" value="" style="resizable=0;html=1;align=left;verticalAlign=bottom;labelBackgroundColor=none;" connectable="0" vertex="1" parent="CjHo6Ju2qZuh-pr2p7nx-166">
          <mxGeometry x="-1" relative="1" as="geometry" />
        </mxCell>
        <mxCell id="CjHo6Ju2qZuh-pr2p7nx-168" value="" style="resizable=0;html=1;align=left;verticalAlign=top;labelBackgroundColor=none;" connectable="0" vertex="1" parent="CjHo6Ju2qZuh-pr2p7nx-166">
          <mxGeometry x="-1" relative="1" as="geometry" />
        </mxCell>
        <mxCell id="CjHo6Ju2qZuh-pr2p7nx-169" value="" style="resizable=0;html=1;align=right;verticalAlign=bottom;labelBackgroundColor=none;" connectable="0" vertex="1" parent="CjHo6Ju2qZuh-pr2p7nx-166">
          <mxGeometry x="1" relative="1" as="geometry" />
        </mxCell>
        <mxCell id="CjHo6Ju2qZuh-pr2p7nx-170" value="" style="resizable=0;html=1;align=right;verticalAlign=top;labelBackgroundColor=none;" connectable="0" vertex="1" parent="CjHo6Ju2qZuh-pr2p7nx-166">
          <mxGeometry x="1" relative="1" as="geometry" />
        </mxCell>
        <mxCell id="CjHo6Ju2qZuh-pr2p7nx-171" value="" style="endArrow=none;html=1;rounded=0;align=center;verticalAlign=top;endFill=0;labelBackgroundColor=none;exitX=0.979;exitY=0.639;exitDx=0;exitDy=0;exitPerimeter=0;" edge="1" parent="1" source="CjHo6Ju2qZuh-pr2p7nx-102">
          <mxGeometry relative="1" as="geometry">
            <mxPoint x="430" y="970" as="sourcePoint" />
            <mxPoint x="690" y="480" as="targetPoint" />
          </mxGeometry>
        </mxCell>
        <mxCell id="CjHo6Ju2qZuh-pr2p7nx-172" value="" style="resizable=0;html=1;align=left;verticalAlign=bottom;labelBackgroundColor=none;" connectable="0" vertex="1" parent="CjHo6Ju2qZuh-pr2p7nx-171">
          <mxGeometry x="-1" relative="1" as="geometry" />
        </mxCell>
        <mxCell id="CjHo6Ju2qZuh-pr2p7nx-173" value="" style="resizable=0;html=1;align=left;verticalAlign=top;labelBackgroundColor=none;" connectable="0" vertex="1" parent="CjHo6Ju2qZuh-pr2p7nx-171">
          <mxGeometry x="-1" relative="1" as="geometry" />
        </mxCell>
        <mxCell id="CjHo6Ju2qZuh-pr2p7nx-174" value="" style="resizable=0;html=1;align=right;verticalAlign=bottom;labelBackgroundColor=none;" connectable="0" vertex="1" parent="CjHo6Ju2qZuh-pr2p7nx-171">
          <mxGeometry x="1" relative="1" as="geometry" />
        </mxCell>
        <mxCell id="CjHo6Ju2qZuh-pr2p7nx-175" value="" style="resizable=0;html=1;align=right;verticalAlign=top;labelBackgroundColor=none;" connectable="0" vertex="1" parent="CjHo6Ju2qZuh-pr2p7nx-171">
          <mxGeometry x="1" relative="1" as="geometry" />
        </mxCell>
      </root>
    </mxGraphModel>
  </diagram>
  <diagram id="9Th1Z54NU8-Dy8M7maKs" name="Pagina-4">
    <mxGraphModel dx="1194" dy="602" grid="1" gridSize="10" guides="1" tooltips="1" connect="1" arrows="1" fold="1" page="1" pageScale="1" pageWidth="827" pageHeight="1169" math="0" shadow="0">
      <root>
        <mxCell id="0" />
        <mxCell id="1" parent="0" />
        <mxCell id="Xdzg9Rv31pwazlh419iC-1" value="canzone" style="swimlane;fontStyle=0;align=center;verticalAlign=top;childLayout=stackLayout;horizontal=1;startSize=55;horizontalStack=0;resizeParent=1;resizeParentMax=0;resizeLast=0;collapsible=0;marginBottom=0;html=1;whiteSpace=wrap;" vertex="1" parent="1">
          <mxGeometry x="236" y="120" width="140" height="98" as="geometry" />
        </mxCell>
        <mxCell id="Xdzg9Rv31pwazlh419iC-2" value="+titolo:string&lt;div&gt;+ autore:string&lt;/div&gt;" style="text;html=1;strokeColor=none;fillColor=none;align=center;verticalAlign=middle;spacingLeft=4;spacingRight=4;overflow=hidden;rotatable=0;points=[[0,0.5],[1,0.5]];portConstraint=eastwest;whiteSpace=wrap;" vertex="1" parent="Xdzg9Rv31pwazlh419iC-1">
          <mxGeometry y="55" width="140" height="35" as="geometry" />
        </mxCell>
        <mxCell id="Xdzg9Rv31pwazlh419iC-3" value="" style="line;strokeWidth=1;fillColor=none;align=left;verticalAlign=middle;spacingTop=-1;spacingLeft=3;spacingRight=3;rotatable=0;labelPosition=right;points=[];portConstraint=eastwest;" vertex="1" parent="Xdzg9Rv31pwazlh419iC-1">
          <mxGeometry y="90" width="140" height="8" as="geometry" />
        </mxCell>
        <mxCell id="Xdzg9Rv31pwazlh419iC-4" value="CD" style="swimlane;fontStyle=0;align=center;verticalAlign=top;childLayout=stackLayout;horizontal=1;startSize=55;horizontalStack=0;resizeParent=1;resizeParentMax=0;resizeLast=0;collapsible=0;marginBottom=0;html=1;whiteSpace=wrap;" vertex="1" parent="1">
          <mxGeometry x="446" y="320" width="140" height="83" as="geometry" />
        </mxCell>
        <mxCell id="Xdzg9Rv31pwazlh419iC-5" value="+titolo:string" style="text;html=1;strokeColor=none;fillColor=none;align=left;verticalAlign=middle;spacingLeft=4;spacingRight=4;overflow=hidden;rotatable=0;points=[[0,0.5],[1,0.5]];portConstraint=eastwest;whiteSpace=wrap;" vertex="1" parent="Xdzg9Rv31pwazlh419iC-4">
          <mxGeometry y="55" width="140" height="20" as="geometry" />
        </mxCell>
        <mxCell id="Xdzg9Rv31pwazlh419iC-6" value="" style="line;strokeWidth=1;fillColor=none;align=left;verticalAlign=middle;spacingTop=-1;spacingLeft=3;spacingRight=3;rotatable=0;labelPosition=right;points=[];portConstraint=eastwest;" vertex="1" parent="Xdzg9Rv31pwazlh419iC-4">
          <mxGeometry y="75" width="140" height="8" as="geometry" />
        </mxCell>
        <mxCell id="Xdzg9Rv31pwazlh419iC-7" value="" style="endArrow=none;startArrow=diamondThin;endFill=0;startFill=1;html=1;verticalAlign=bottom;labelBackgroundColor=none;strokeWidth=1;startSize=8;endSize=8;rounded=0;entryX=0.5;entryY=1;entryDx=0;entryDy=0;exitX=0.453;exitY=-0.001;exitDx=0;exitDy=0;exitPerimeter=0;" edge="1" parent="1" source="Xdzg9Rv31pwazlh419iC-4" target="Xdzg9Rv31pwazlh419iC-1">
          <mxGeometry width="160" relative="1" as="geometry">
            <mxPoint x="356" y="270" as="sourcePoint" />
            <mxPoint x="516" y="270" as="targetPoint" />
          </mxGeometry>
        </mxCell>
        <mxCell id="Xdzg9Rv31pwazlh419iC-8" value="compone" style="edgeLabel;html=1;align=center;verticalAlign=middle;resizable=0;points=[];" vertex="1" connectable="0" parent="Xdzg9Rv31pwazlh419iC-7">
          <mxGeometry x="0.0428" y="3" relative="1" as="geometry">
            <mxPoint as="offset" />
          </mxGeometry>
        </mxCell>
        <mxCell id="Xdzg9Rv31pwazlh419iC-9" value="1....*" style="edgeLabel;html=1;align=center;verticalAlign=middle;resizable=0;points=[];" vertex="1" connectable="0" parent="Xdzg9Rv31pwazlh419iC-7">
          <mxGeometry x="0.88" relative="1" as="geometry">
            <mxPoint as="offset" />
          </mxGeometry>
        </mxCell>
        <mxCell id="Xdzg9Rv31pwazlh419iC-10" value="1....*" style="edgeLabel;html=1;align=center;verticalAlign=middle;resizable=0;points=[];" vertex="1" connectable="0" parent="Xdzg9Rv31pwazlh419iC-7">
          <mxGeometry x="-0.8102" y="-1" relative="1" as="geometry">
            <mxPoint as="offset" />
          </mxGeometry>
        </mxCell>
        <mxCell id="Xdzg9Rv31pwazlh419iC-11" value="sola lettura&amp;nbsp;" style="swimlane;fontStyle=0;align=center;verticalAlign=top;childLayout=stackLayout;horizontal=1;startSize=55;horizontalStack=0;resizeParent=1;resizeParentMax=0;resizeLast=0;collapsible=0;marginBottom=0;html=1;whiteSpace=wrap;" vertex="1" parent="1">
          <mxGeometry x="306" y="500" width="140" height="63" as="geometry" />
        </mxCell>
        <mxCell id="Xdzg9Rv31pwazlh419iC-12" value="" style="line;strokeWidth=1;fillColor=none;align=left;verticalAlign=middle;spacingTop=-1;spacingLeft=3;spacingRight=3;rotatable=0;labelPosition=right;points=[];portConstraint=eastwest;" vertex="1" parent="Xdzg9Rv31pwazlh419iC-11">
          <mxGeometry y="55" width="140" height="8" as="geometry" />
        </mxCell>
        <mxCell id="Xdzg9Rv31pwazlh419iC-13" value="masterizzati al max 1 volta" style="swimlane;fontStyle=0;align=center;verticalAlign=top;childLayout=stackLayout;horizontal=1;startSize=55;horizontalStack=0;resizeParent=1;resizeParentMax=0;resizeLast=0;collapsible=0;marginBottom=0;html=1;whiteSpace=wrap;" vertex="1" parent="1">
          <mxGeometry x="466" y="500" width="140" height="63" as="geometry" />
        </mxCell>
        <mxCell id="Xdzg9Rv31pwazlh419iC-14" value="" style="line;strokeWidth=1;fillColor=none;align=left;verticalAlign=middle;spacingTop=-1;spacingLeft=3;spacingRight=3;rotatable=0;labelPosition=right;points=[];portConstraint=eastwest;" vertex="1" parent="Xdzg9Rv31pwazlh419iC-13">
          <mxGeometry y="55" width="140" height="8" as="geometry" />
        </mxCell>
        <mxCell id="Xdzg9Rv31pwazlh419iC-15" value="masterizzabili" style="swimlane;fontStyle=0;align=center;verticalAlign=top;childLayout=stackLayout;horizontal=1;startSize=55;horizontalStack=0;resizeParent=1;resizeParentMax=0;resizeLast=0;collapsible=0;marginBottom=0;html=1;whiteSpace=wrap;" vertex="1" parent="1">
          <mxGeometry x="636" y="500" width="140" height="63" as="geometry" />
        </mxCell>
        <mxCell id="Xdzg9Rv31pwazlh419iC-16" value="" style="line;strokeWidth=1;fillColor=none;align=left;verticalAlign=middle;spacingTop=-1;spacingLeft=3;spacingRight=3;rotatable=0;labelPosition=right;points=[];portConstraint=eastwest;" vertex="1" parent="Xdzg9Rv31pwazlh419iC-15">
          <mxGeometry y="55" width="140" height="8" as="geometry" />
        </mxCell>
        <mxCell id="Xdzg9Rv31pwazlh419iC-17" value="" style="endArrow=block;html=1;rounded=0;align=center;verticalAlign=bottom;endFill=0;labelBackgroundColor=none;endSize=8;exitX=0.547;exitY=0.02;exitDx=0;exitDy=0;exitPerimeter=0;" edge="1" parent="1" source="Xdzg9Rv31pwazlh419iC-11">
          <mxGeometry relative="1" as="geometry">
            <mxPoint x="386" y="470" as="sourcePoint" />
            <mxPoint x="511" y="400" as="targetPoint" />
          </mxGeometry>
        </mxCell>
        <mxCell id="Xdzg9Rv31pwazlh419iC-18" value="" style="resizable=0;html=1;align=center;verticalAlign=top;labelBackgroundColor=none;" connectable="0" vertex="1" parent="Xdzg9Rv31pwazlh419iC-17">
          <mxGeometry relative="1" as="geometry" />
        </mxCell>
        <mxCell id="Xdzg9Rv31pwazlh419iC-19" value="" style="endArrow=block;html=1;rounded=0;align=center;verticalAlign=bottom;endFill=0;labelBackgroundColor=none;endSize=8;" edge="1" parent="1" source="Xdzg9Rv31pwazlh419iC-13">
          <mxGeometry relative="1" as="geometry">
            <mxPoint x="393" y="511" as="sourcePoint" />
            <mxPoint x="513" y="400" as="targetPoint" />
          </mxGeometry>
        </mxCell>
        <mxCell id="Xdzg9Rv31pwazlh419iC-20" value="" style="resizable=0;html=1;align=center;verticalAlign=top;labelBackgroundColor=none;" connectable="0" vertex="1" parent="Xdzg9Rv31pwazlh419iC-19">
          <mxGeometry relative="1" as="geometry" />
        </mxCell>
        <mxCell id="Xdzg9Rv31pwazlh419iC-21" value="" style="endArrow=block;html=1;rounded=0;align=center;verticalAlign=bottom;endFill=0;labelBackgroundColor=none;endSize=8;exitX=0.5;exitY=0;exitDx=0;exitDy=0;entryX=0.454;entryY=0.222;entryDx=0;entryDy=0;entryPerimeter=0;" edge="1" parent="1" source="Xdzg9Rv31pwazlh419iC-15" target="Xdzg9Rv31pwazlh419iC-6">
          <mxGeometry relative="1" as="geometry">
            <mxPoint x="403" y="521" as="sourcePoint" />
            <mxPoint x="510.7600000000002" y="433.0799999999999" as="targetPoint" />
          </mxGeometry>
        </mxCell>
        <mxCell id="Xdzg9Rv31pwazlh419iC-22" value="" style="resizable=0;html=1;align=center;verticalAlign=top;labelBackgroundColor=none;" connectable="0" vertex="1" parent="Xdzg9Rv31pwazlh419iC-21">
          <mxGeometry relative="1" as="geometry" />
        </mxCell>
        <mxCell id="Xdzg9Rv31pwazlh419iC-23" value="riscrivibili" style="swimlane;fontStyle=0;align=center;verticalAlign=top;childLayout=stackLayout;horizontal=1;startSize=55;horizontalStack=0;resizeParent=1;resizeParentMax=0;resizeLast=0;collapsible=0;marginBottom=0;html=1;whiteSpace=wrap;" vertex="1" parent="1">
          <mxGeometry x="150" y="500" width="140" height="63" as="geometry" />
        </mxCell>
        <mxCell id="Xdzg9Rv31pwazlh419iC-24" value="" style="line;strokeWidth=1;fillColor=none;align=left;verticalAlign=middle;spacingTop=-1;spacingLeft=3;spacingRight=3;rotatable=0;labelPosition=right;points=[];portConstraint=eastwest;" vertex="1" parent="Xdzg9Rv31pwazlh419iC-23">
          <mxGeometry y="55" width="140" height="8" as="geometry" />
        </mxCell>
        <mxCell id="Xdzg9Rv31pwazlh419iC-25" value="" style="endArrow=block;html=1;rounded=0;align=center;verticalAlign=bottom;endFill=0;labelBackgroundColor=none;endSize=8;exitX=0.5;exitY=0;exitDx=0;exitDy=0;entryX=0.492;entryY=0.683;entryDx=0;entryDy=0;entryPerimeter=0;" edge="1" parent="1" source="Xdzg9Rv31pwazlh419iC-23" target="Xdzg9Rv31pwazlh419iC-6">
          <mxGeometry relative="1" as="geometry">
            <mxPoint x="393" y="511" as="sourcePoint" />
            <mxPoint x="511.74" y="433.29999999999995" as="targetPoint" />
          </mxGeometry>
        </mxCell>
        <mxCell id="Xdzg9Rv31pwazlh419iC-26" value="" style="resizable=0;html=1;align=center;verticalAlign=top;labelBackgroundColor=none;" connectable="0" vertex="1" parent="Xdzg9Rv31pwazlh419iC-25">
          <mxGeometry relative="1" as="geometry" />
        </mxCell>
        <mxCell id="Xdzg9Rv31pwazlh419iC-27" value="utente" style="swimlane;fontStyle=0;align=center;verticalAlign=top;childLayout=stackLayout;horizontal=1;startSize=55;horizontalStack=0;resizeParent=1;resizeParentMax=0;resizeLast=0;collapsible=0;marginBottom=0;html=1;whiteSpace=wrap;" vertex="1" parent="1">
          <mxGeometry x="536" y="90" width="140" height="150" as="geometry" />
        </mxCell>
        <mxCell id="Xdzg9Rv31pwazlh419iC-28" value="+nome:string" style="text;html=1;strokeColor=none;fillColor=none;align=center;verticalAlign=middle;spacingLeft=4;spacingRight=4;overflow=hidden;rotatable=0;points=[[0,0.5],[1,0.5]];portConstraint=eastwest;whiteSpace=wrap;" vertex="1" parent="Xdzg9Rv31pwazlh419iC-27">
          <mxGeometry y="55" width="140" height="20" as="geometry" />
        </mxCell>
        <mxCell id="Xdzg9Rv31pwazlh419iC-29" value="" style="line;strokeWidth=1;fillColor=none;align=left;verticalAlign=middle;spacingTop=-1;spacingLeft=3;spacingRight=3;rotatable=0;labelPosition=right;points=[];portConstraint=eastwest;" vertex="1" parent="Xdzg9Rv31pwazlh419iC-27">
          <mxGeometry y="75" width="140" height="8" as="geometry" />
        </mxCell>
        <mxCell id="Xdzg9Rv31pwazlh419iC-30" value="+ vai avanti()&lt;div&gt;+masterizza()&lt;/div&gt;" style="text;html=1;strokeColor=none;fillColor=none;align=left;verticalAlign=middle;spacingLeft=4;spacingRight=4;overflow=hidden;rotatable=0;points=[[0,0.5],[1,0.5]];portConstraint=eastwest;whiteSpace=wrap;" vertex="1" parent="Xdzg9Rv31pwazlh419iC-27">
          <mxGeometry y="83" width="140" height="67" as="geometry" />
        </mxCell>
        <mxCell id="Xdzg9Rv31pwazlh419iC-31" value="" style="endArrow=none;html=1;endSize=12;startArrow=none;startSize=14;startFill=0;align=center;verticalAlign=bottom;endFill=0;rounded=0;exitX=0.998;exitY=0.413;exitDx=0;exitDy=0;exitPerimeter=0;entryX=0.547;entryY=1.018;entryDx=0;entryDy=0;entryPerimeter=0;" edge="1" parent="1" source="Xdzg9Rv31pwazlh419iC-4" target="Xdzg9Rv31pwazlh419iC-30">
          <mxGeometry y="3" relative="1" as="geometry">
            <mxPoint x="496" y="280" as="sourcePoint" />
            <mxPoint x="656" y="280" as="targetPoint" />
          </mxGeometry>
        </mxCell>
        <mxCell id="Xdzg9Rv31pwazlh419iC-32" value="controlla" style="edgeLabel;html=1;align=center;verticalAlign=middle;resizable=0;points=[];" vertex="1" connectable="0" parent="Xdzg9Rv31pwazlh419iC-31">
          <mxGeometry x="0.2177" relative="1" as="geometry">
            <mxPoint as="offset" />
          </mxGeometry>
        </mxCell>
        <mxCell id="Xdzg9Rv31pwazlh419iC-33" value="1" style="edgeLabel;html=1;align=center;verticalAlign=middle;resizable=0;points=[];" vertex="1" connectable="0" parent="Xdzg9Rv31pwazlh419iC-31">
          <mxGeometry x="0.8853" y="-1" relative="1" as="geometry">
            <mxPoint as="offset" />
          </mxGeometry>
        </mxCell>
        <mxCell id="Xdzg9Rv31pwazlh419iC-34" value="1" style="edgeLabel;html=1;align=center;verticalAlign=middle;resizable=0;points=[];" vertex="1" connectable="0" parent="Xdzg9Rv31pwazlh419iC-31">
          <mxGeometry x="-0.8083" relative="1" as="geometry">
            <mxPoint as="offset" />
          </mxGeometry>
        </mxCell>
      </root>
    </mxGraphModel>
  </diagram>
</mxfile>
